<svg xmlns="http://www.w3.org/2000/svg" width="429" height="861.999" viewBox="0 0 429 861.999">
  <g id="black-mockup" transform="translate(-243 -219)">
    <g id="phone">
      <path id="body" d="M64-123A60,60,0,0,1,4-183V-667a4,4,0,0,1-4-4v-54a4,4,0,0,1,4-4v-16a4,4,0,0,1-4-4v-54a4,4,0,0,1,4-4v-30a4,4,0,0,1-4-4v-24a4,4,0,0,1,4-4v-56a60,60,0,0,1,60-60H365a60,60,0,0,1,60,60v139a4,4,0,0,1,4,4v90a4,4,0,0,1-4,4v505a60,60,0,0,1-60,60Z" transform="translate(243 1204)" fill="#2d2d41"/>
      <path id="camera" d="M114-960a6,6,0,0,1,6-6,6,6,0,0,1,6,6,6,6,0,0,1-6,6A6,6,0,0,1,114-960Zm-64,3a3,3,0,0,1-3-3,3,3,0,0,1,3-3H97a3,3,0,0,1,3,3,3,3,0,0,1-3,3Z" transform="translate(384 1213)" fill="#424256"/>
    </g>
  </g>
</svg>
